<?xml version="1.0" standalone="no"?><!DOCTYPE svg PUBLIC "-//W3C//DTD SVG 1.1//EN" "http://www.w3.org/Graphics/SVG/1.1/DTD/svg11.dtd"><svg t="1640220113256" class="icon" viewBox="0 0 1024 1024" version="1.1" xmlns="http://www.w3.org/2000/svg" p-id="4354" xmlns:xlink="http://www.w3.org/1999/xlink" width="32" height="32"><defs><style type="text/css"></style></defs><path d="M0.4335 1.257151h1021.478473v1021.492923H0.4335z" fill="#EAEAEA" p-id="4355" data-spm-anchor-id="a313x.7781069.0.i19" class=""></path><path d="M0.4335 1.257151l1021.471248 1021.485698M0.4335 1022.742849L1021.904748 1.257151" fill="#769AFF" p-id="4356"></path><path d="M881.848021 439.453722H577.624723V135.237649a65.025048 65.025048 0 0 0-65.025048-65.025048 65.025048 65.025048 0 0 0-65.025047 65.025048v304.216073H143.358555a65.025048 65.025048 0 0 0-65.025048 65.025047 65.025048 65.025048 0 0 0 65.025048 65.025048h304.216073v304.223298a65.025048 65.025048 0 0 0 65.025047 65.025048 65.025048 65.025048 0 0 0 65.025048-65.025048V569.503817h304.223298a65.025048 65.025048 0 0 0 0-130.050095z" fill="#757575" p-id="4357" data-spm-anchor-id="a313x.7781069.0.i20" class="selected"></path></svg>