<?xml version="1.0" standalone="no"?><!DOCTYPE svg PUBLIC "-//W3C//DTD SVG 1.1//EN" "http://www.w3.org/Graphics/SVG/1.1/DTD/svg11.dtd"><svg t="1640189046822" class="icon" viewBox="0 0 1024 1024" version="1.1" xmlns="http://www.w3.org/2000/svg" p-id="4800" xmlns:xlink="http://www.w3.org/1999/xlink" width="32" height="32"><defs><style type="text/css"></style></defs><path d="M512.8704 65.0752c-246.272 0-445.952 174.6944-445.952 390.1952 0 122.88 65.3824 232.8064 167.2192 304.3328v197.3248l195.3792-118.528a512 512 0 0 0 83.3536 7.0656c246.272 0 445.9008-174.6944 445.9008-390.1952s-199.6288-390.1952-445.9008-390.1952z m0 724.6336a450.0992 450.0992 0 0 1-94.208-10.24l-131.2256 78.8992 1.7408-129.28C188.6208 668.6208 122.88 568.576 122.88 455.2704c0-184.6784 174.4896-334.4384 389.9904-334.4384s390.144 149.76 390.144 334.4384-174.6944 334.4384-390.144 334.4384z" fill="#515151" p-id="4801" data-spm-anchor-id="a313x.7781069.0.i3" class=""></path><path d="M512.8704 399.36a55.7568 55.7568 0 1 0 55.7056 55.7568A55.7568 55.7568 0 0 0 512.8704 399.36zM289.8944 399.36a55.7568 55.7568 0 1 0 55.7568 55.9104A55.808 55.808 0 0 0 289.8944 399.36zM735.7952 399.36a55.7568 55.7568 0 1 0 55.7568 55.9104A55.7568 55.7568 0 0 0 735.7952 399.36z" fill="#515151" p-id="4802" data-spm-anchor-id="a313x.7781069.0.i2" class=""></path></svg>